<mxfile host="65bd71144e">
    <diagram id="be88aK_8NiFmp7I-nFF2" name="Page-1">
        <mxGraphModel dx="1581" dy="1719" grid="1" gridSize="10" guides="1" tooltips="1" connect="1" arrows="1" fold="1" page="1" pageScale="1" pageWidth="827" pageHeight="1169" math="0" shadow="0">
            <root>
                <mxCell id="0"/>
                <mxCell id="1" parent="0"/>
                <mxCell id="11" value="" style="rounded=1;whiteSpace=wrap;html=1;" parent="1" vertex="1">
                    <mxGeometry x="-290" y="-230" width="1190" height="560" as="geometry"/>
                </mxCell>
                <mxCell id="2" value="Backend Service &#xa;Spring Boot&#xa;(8080)" style="shape=rectangle;fillColor=#FFCC00;strokeColor=#000000;" parent="1" vertex="1">
                    <mxGeometry x="229" y="-30" width="200" height="80" as="geometry"/>
                </mxCell>
                <mxCell id="3" value="Frontend &#xa;React + TailwindCSS&#xa;(80)" style="shape=rectangle;fillColor=#66CCFF;strokeColor=#000000;" parent="1" vertex="1">
                    <mxGeometry x="-21" y="-30" width="180" height="80" as="geometry"/>
                </mxCell>
                <mxCell id="10" style="edgeStyle=none;html=1;exitX=0.75;exitY=0;exitDx=0;exitDy=0;entryX=0.75;entryY=1;entryDx=0;entryDy=0;" parent="1" source="4" target="2" edge="1">
                    <mxGeometry relative="1" as="geometry"/>
                </mxCell>
                <mxCell id="4" value="MongoDB (27017)" style="shape=rectangle;fillColor=#99FF99;strokeColor=#000000;" parent="1" vertex="1">
                    <mxGeometry x="229" y="170" width="200" height="80" as="geometry"/>
                </mxCell>
                <mxCell id="9" style="edgeStyle=none;html=1;exitX=0;exitY=0.75;exitDx=0;exitDy=0;" parent="1" source="5" edge="1">
                    <mxGeometry relative="1" as="geometry">
                        <mxPoint x="430" y="29.66666666666663" as="targetPoint"/>
                    </mxGeometry>
                </mxCell>
                <mxCell id="5" value="Keycloak Instance&#xa;Authorization Server&#xa;(8082)" style="shape=rectangle;fillColor=#FF9999;strokeColor=#000000;" parent="1" vertex="1">
                    <mxGeometry x="509" y="-30" width="200" height="80" as="geometry"/>
                </mxCell>
                <mxCell id="6" style="edgeStyle=elbowEdgeStyle;strokeColor=#000000;" parent="1" source="3" target="2" edge="1">
                    <mxGeometry relative="1" as="geometry"/>
                </mxCell>
                <mxCell id="7" style="edgeStyle=elbowEdgeStyle;strokeColor=#000000;" parent="1" source="2" target="4" edge="1">
                    <mxGeometry relative="1" as="geometry">
                        <Array as="points">
                            <mxPoint x="290" y="80"/>
                        </Array>
                    </mxGeometry>
                </mxCell>
                <mxCell id="8" style="edgeStyle=elbowEdgeStyle;strokeColor=#000000;" parent="1" source="2" target="5" edge="1">
                    <mxGeometry relative="1" as="geometry">
                        <Array as="points">
                            <mxPoint x="470" y="-10"/>
                        </Array>
                    </mxGeometry>
                </mxCell>
                <mxCell id="13" value="" style="edgeStyle=none;html=1;" parent="1" source="12" target="3" edge="1">
                    <mxGeometry relative="1" as="geometry"/>
                </mxCell>
                <mxCell id="12" value="User&lt;div&gt;&lt;br&gt;&lt;/div&gt;" style="shape=umlActor;verticalLabelPosition=bottom;verticalAlign=top;html=1;outlineConnect=0;" parent="1" vertex="1">
                    <mxGeometry x="-160" y="-20" width="30" height="60" as="geometry"/>
                </mxCell>
            </root>
        </mxGraphModel>
    </diagram>
</mxfile>